<?xml version="1.0" encoding="utf-8"?><svg viewBox="0 0 54 43" xmlns="http://www.w3.org/2000/svg" xmlns:xlink="http://www.w3.org/1999/xlink"><style>:root>svg{display:none}:root>svg:target{display:block}</style><svg fill="none" viewBox="0 0 20 21" id="Group_2" xmlns="http://www.w3.org/2000/svg"><circle cx="10" cy="10.558" r="9.5" stroke="#1F2041" stroke-opacity=".25"/><path d="M9.255 8.102h1.872v6.456H9.255V8.102zm.936-.9c-.344 0-.624-.1-.84-.3a.973.973 0 01-.324-.744c0-.296.108-.544.324-.744.216-.2.496-.3.84-.3s.624.096.84.288a.923.923 0 01.324.72c0 .312-.108.572-.324.78-.216.2-.496.3-.84.3z" fill="#1F2041" fill-opacity=".25"/></svg><svg fill="none" viewBox="0 0 40 40" id="Logo" xmlns="http://www.w3.org/2000/svg"><path d="M20 27.059a1.18 1.18 0 01-1.177-1.177c0-4.529-3.706-8.235-8.235-8.235a1.18 1.18 0 01-1.176-1.176 1.18 1.18 0 011.176-1.177 10.582 10.582 0 0110.588 10.588A1.18 1.18 0 0120 27.06z" fill="url(#bpaint0_linear)"/><path d="M30.588 16.47a1.18 1.18 0 01-1.176 1.177 8.21 8.21 0 00-6.765 3.559 12.037 12.037 0 00-1.176-2.294 10.49 10.49 0 017.94-3.618c.648 0 1.177.53 1.177 1.177z" fill="url(#bpaint1_linear)"/><path d="M20 40C8.97 40 0 31.03 0 20S8.97 0 20 0s20 8.97 20 20-8.97 20-20 20zm0-37.647C10.265 2.353 2.353 10.265 2.353 20S10.265 37.647 20 37.647 37.647 29.735 37.647 20 29.735 2.353 20 2.353z" fill="url(#bpaint2_linear)"/><defs><linearGradient id="bpaint0_linear" x1="15.294" y1="15.294" x2="15.294" y2="27.059" gradientUnits="userSpaceOnUse"><stop stop-color="#BC9CFF"/><stop offset="1" stop-color="#8BA4F9"/></linearGradient><linearGradient id="bpaint1_linear" x1="26.029" y1="15.294" x2="26.029" y2="21.206" gradientUnits="userSpaceOnUse"><stop stop-color="#6FCF97"/><stop offset="1" stop-color="#66D2EA"/></linearGradient><linearGradient id="bpaint2_linear" x1="20" y1="0" x2="20" y2="40" gradientUnits="userSpaceOnUse"><stop stop-color="#BC9CFF"/><stop offset="1" stop-color="#8BA4F9"/></linearGradient></defs></svg><svg fill="none" viewBox="0 0 54 14" id="TOXIN" xmlns="http://www.w3.org/2000/svg"><path d="M10.335.368c.222 0 .402.076.542.228.152.14.228.32.228.542a.74.74 0 01-.228.543.705.705 0 01-.542.227H6.572v10.5a.76.76 0 01-.227.56c-.14.14-.32.21-.542.21a.774.774 0 01-.543-.21.76.76 0 01-.228-.56v-10.5H1.27a.74.74 0 01-.542-.227.74.74 0 01-.228-.543C.5.917.576.736.728.596A.74.74 0 011.27.368h9.065zm6.573 0c.886 0 1.72.17 2.502.508a6.482 6.482 0 012.065 1.382 6.343 6.343 0 011.4 2.065 6.24 6.24 0 01.508 2.503 6.259 6.259 0 01-.665 2.87 6.498 6.498 0 01-1.803 2.205l-.035.035a7.18 7.18 0 01-1.837.997 6.401 6.401 0 01-2.135.35 6.23 6.23 0 01-2.503-.507 6.751 6.751 0 01-2.065-1.383 6.537 6.537 0 01-1.382-2.047 6.276 6.276 0 01-.508-2.52c0-.98.198-1.884.595-2.713a6.46 6.46 0 011.628-2.152l.07-.07c.011 0 .029-.012.052-.035A6.334 6.334 0 0114.685.77a6.16 6.16 0 012.223-.403zm0 11.375a4.91 4.91 0 001.26-.157 5.575 5.575 0 001.155-.473L13.18 3.641a4.915 4.915 0 00-.875 1.47 4.664 4.664 0 00-.315 1.715c0 .677.128 1.312.385 1.907a5.17 5.17 0 001.05 1.575c.455.444.98.794 1.575 1.05.595.257 1.23.385 1.908.385zm3.622-1.592c.408-.443.723-.945.945-1.505.233-.572.35-1.178.35-1.82a4.814 4.814 0 00-1.453-3.465 4.813 4.813 0 00-3.464-1.453c-.467 0-.916.065-1.348.193a4.46 4.46 0 00-1.207.525l6.177 7.525zm9.821-2.521a.763.763 0 01-.595-.28l-4.497-5.774a.714.714 0 01-.158-.543.722.722 0 01.28-.507.658.658 0 01.543-.14.72.72 0 01.507.28l3.92 5.005L34.184.753a.709.709 0 01.49-.28.74.74 0 01.56.158.721.721 0 01.28.507.713.713 0 01-.158.543l-4.41 5.67a.73.73 0 01-.595.28zm4.918 5.636a1.566 1.566 0 01-.56-.105 3.847 3.847 0 01-.42-.228 2.376 2.376 0 01-.42-.42L30.35 7.981l-3.832 4.935a.721.721 0 01-.508.28.713.713 0 01-.543-.158.709.709 0 01-.28-.49.741.741 0 01.158-.56l4.41-5.67a.682.682 0 01.578-.28.75.75 0 01.612.28l4.095 5.25c.058.082.11.135.158.158l.105.052c.198 0 .361.07.49.21.14.129.215.292.227.49a.657.657 0 01-.175.543.744.744 0 01-.525.245h-.052zm4.465 0a.761.761 0 01-.56-.228.76.76 0 01-.227-.56V1.103c0-.21.076-.39.227-.542a.761.761 0 01.56-.228c.21 0 .391.076.543.228a.74.74 0 01.227.542v11.375a.76.76 0 01-.227.56.74.74 0 01-.543.228zm13.204-.036a.685.685 0 01-.595-.297l-7.298-9.59v9.135a.74.74 0 01-.227.543.712.712 0 01-.525.21.75.75 0 01-.753-.753V1.121c0-.163.047-.31.14-.438a.696.696 0 01.385-.262.678.678 0 01.455-.018.79.79 0 01.385.263l7.28 9.607V1.121c0-.198.07-.373.21-.525a.74.74 0 01.543-.228c.21 0 .385.076.525.228a.721.721 0 01.227.525v11.357a.72.72 0 01-.14.438.799.799 0 01-.367.28 1.469 1.469 0 01-.245.035z" fill="#1F2041"/></svg><svg fill="none" viewBox="0 0 10 8" id="favorite" xmlns="http://www.w3.org/2000/svg"><path d="M4.902 7.887l-.605-.547a80.948 80.948 0 01-1.504-1.387c-.313-.3-.664-.67-1.055-1.113-.377-.443-.638-.84-.78-1.192a3.021 3.021 0 01-.216-1.113c0-.638.215-1.178.645-1.62.442-.444.99-.665 1.64-.665.756 0 1.38.293 1.875.879C5.397.543 6.022.25 6.777.25c.651 0 1.192.221 1.621.664.443.443.665.983.665 1.621 0 .508-.17 1.035-.508 1.582A7.84 7.84 0 017.44 5.543c-.39.404-1.035 1.01-1.933 1.816l-.606.528z" fill="url(#dpaint0_linear_18384_118)"/><defs><linearGradient id="dpaint0_linear_18384_118" x1="4.902" y1="-6" x2="4.902" y2="14" gradientUnits="userSpaceOnUse"><stop stop-color="#BC9CFF"/><stop offset="1" stop-color="#8BA4F9"/></linearGradient></defs></svg><svg fill="none" viewBox="0 0 10 8" id="favorite_border" xmlns="http://www.w3.org/2000/svg"><path d="M5.04 6.734c.624-.56 1.086-.983 1.386-1.27.3-.286.625-.624.976-1.015.352-.39.593-.735.723-1.035.143-.3.215-.592.215-.879A1.37 1.37 0 007.91 1.5c-.273-.273-.618-.41-1.035-.41a1.68 1.68 0 00-.918.273 1.415 1.415 0 00-.566.703h-.782c-.104-.286-.3-.52-.586-.703a1.586 1.586 0 00-.898-.273 1.47 1.47 0 00-1.055.41c-.273.273-.41.618-.41 1.035 0 .287.065.58.195.88.144.299.391.644.743 1.034.351.39.677.73.976 1.016.3.286.762.71 1.387 1.27L5 6.772l.04-.039zM6.874.25c.651 0 1.191.221 1.621.664.443.443.664.983.664 1.621 0 .378-.071.749-.215 1.113-.143.352-.41.75-.8 1.192-.378.443-.723.814-1.036 1.113-.312.3-.813.762-1.504 1.387L5 7.887l-.605-.528A55.478 55.478 0 012.44 5.543a8.39 8.39 0 01-1.093-1.426C1.009 3.57.84 3.043.84 2.535c0-.638.215-1.178.644-1.62C1.927.47 2.474.25 3.125.25c.755 0 1.38.293 1.875.879C5.495.543 6.12.25 6.875.25z" fill="#1F2041" fill-opacity=".25"/></svg><svg fill="none" viewBox="0 0 22 22" id="fb" xmlns="http://www.w3.org/2000/svg"><path d="M21.5 2.75v16.5a2.17 2.17 0 01-.656 1.594 2.17 2.17 0 01-1.594.656h-3.984v-8.297h2.812l.422-3.187h-3.234V8c0-.5.093-.875.28-1.125.25-.281.673-.422 1.267-.422H18.5V3.641c-.656-.094-1.469-.141-2.438-.141-1.25 0-2.25.375-3 1.125-.718.719-1.078 1.734-1.078 3.047v2.344H9.125v3.187h2.86V21.5H2.75a2.17 2.17 0 01-1.594-.656A2.17 2.17 0 01.5 19.25V2.75c0-.625.219-1.156.656-1.594A2.17 2.17 0 012.75.5h16.5a2.17 2.17 0 011.594.656c.437.438.656.969.656 1.594z" fill="url(#fpaint0_linear)"/><defs><linearGradient id="fpaint0_linear" x1="11" y1="-1" x2="11" y2="23" gradientUnits="userSpaceOnUse"><stop stop-color="#BC9CFF"/><stop offset="1" stop-color="#8BA4F9"/></linearGradient></defs></svg><svg fill="none" viewBox="0 0 40 40" id="icons" xmlns="http://www.w3.org/2000/svg"><path d="M20 27.059a1.18 1.18 0 01-1.177-1.177c0-4.529-3.706-8.235-8.235-8.235a1.18 1.18 0 01-1.176-1.176c0-.647.529-1.177 1.176-1.177a10.582 10.582 0 0110.588 10.588A1.18 1.18 0 0120 27.06z" fill="url(#gpaint0_linear)"/><path d="M30.588 16.47a1.18 1.18 0 01-1.176 1.177 8.21 8.21 0 00-6.765 3.559 12.037 12.037 0 00-1.176-2.294 10.49 10.49 0 017.94-3.618c.648 0 1.177.53 1.177 1.177z" fill="url(#gpaint1_linear)"/><path d="M20 40C8.97 40 0 31.03 0 20S8.97 0 20 0s20 8.97 20 20-8.97 20-20 20zm0-37.647C10.265 2.353 2.353 10.265 2.353 20S10.265 37.647 20 37.647 37.647 29.735 37.647 20 29.735 2.353 20 2.353z" fill="url(#gpaint2_linear)"/><defs><linearGradient id="gpaint0_linear" x1="15.294" y1="15.294" x2="15.294" y2="27.059" gradientUnits="userSpaceOnUse"><stop stop-color="#BC9CFF"/><stop offset="1" stop-color="#8BA4F9"/></linearGradient><linearGradient id="gpaint1_linear" x1="26.029" y1="15.294" x2="26.029" y2="21.206" gradientUnits="userSpaceOnUse"><stop stop-color="#6FCF97"/><stop offset="1" stop-color="#66D2EA"/></linearGradient><linearGradient id="gpaint2_linear" x1="20" y1="0" x2="20" y2="40" gradientUnits="userSpaceOnUse"><stop stop-color="#BC9CFF"/><stop offset="1" stop-color="#8BA4F9"/></linearGradient></defs></svg><svg fill="none" viewBox="0 0 40 40" id="insert_emoticon" xmlns="http://www.w3.org/2000/svg"><path d="M26.188 29.094c-1.813 1.25-3.875 1.875-6.188 1.875-2.313 0-4.406-.625-6.281-1.875-1.813-1.313-3.125-3-3.938-5.063H30.22c-.813 2.063-2.157 3.75-4.032 5.063zM15.03 17.187c-.562.563-1.25.844-2.062.844-.813 0-1.531-.281-2.156-.843-.563-.625-.844-1.344-.844-2.157 0-.812.281-1.5.844-2.062.624-.625 1.343-.938 2.156-.938.812 0 1.5.313 2.062.938.625.562.938 1.25.938 2.062 0 .813-.313 1.531-.938 2.156zm14.063 0c-.563.563-1.25.844-2.063.844-.812 0-1.531-.281-2.156-.843-.563-.625-.844-1.344-.844-2.157 0-.812.282-1.5.844-2.062.625-.625 1.344-.938 2.156-.938.813 0 1.5.313 2.063.938.625.562.937 1.25.937 2.062 0 .813-.312 1.531-.937 2.156zM8.656 31.345C11.844 34.469 15.625 36.03 20 36.03c4.375 0 8.125-1.562 11.25-4.687 3.188-3.188 4.781-6.969 4.781-11.344 0-4.375-1.593-8.125-4.781-11.25C28.125 5.562 24.375 3.969 20 3.969S11.844 5.563 8.656 8.75C5.531 11.875 3.97 15.625 3.97 20s1.562 8.156 4.687 11.344zM5.844 5.937C9.78 2 14.5.032 20 .032S30.188 2 34.063 5.938C38 9.813 39.968 14.5 39.968 20S38 30.219 34.062 34.156C30.189 38.031 25.5 39.97 20 39.97S9.781 38.03 5.844 34.156C1.969 30.22.03 25.5.03 20S1.97 9.812 5.844 5.937z" fill="url(#hpaint0_linear_18384_58)"/><defs><linearGradient id="hpaint0_linear_18384_58" x1="20" y1="-4" x2="20" y2="44" gradientUnits="userSpaceOnUse"><stop stop-color="#BC9CFF"/><stop offset="1" stop-color="#8BA4F9"/></linearGradient></defs></svg><svg fill="none" viewBox="0 0 22 22" id="inst" xmlns="http://www.w3.org/2000/svg"><path d="M11 5.61c-.969 0-1.875.25-2.719.75a5.406 5.406 0 00-1.969 1.968A5.252 5.252 0 005.61 11c0 .969.235 1.875.704 2.719a5.93 5.93 0 001.968 1.969A5.51 5.51 0 0011 16.39c.969 0 1.86-.235 2.672-.703.844-.5 1.5-1.157 1.969-1.97.5-.843.75-1.75.75-2.718a5 5 0 00-.75-2.672 4.972 4.972 0 00-1.97-1.969A5 5 0 0011 5.61zm0 8.906a3.386 3.386 0 01-2.484-1.032A3.386 3.386 0 017.484 11c0-.969.344-1.797 1.032-2.484A3.386 3.386 0 0111 7.484c.969 0 1.797.344 2.484 1.032A3.386 3.386 0 0114.516 11c0 .969-.344 1.797-1.032 2.484A3.386 3.386 0 0111 14.516zm6.89-9.141c-.03.344-.171.64-.421.89-.219.25-.5.376-.844.376s-.64-.125-.89-.375a1.217 1.217 0 01-.376-.891c0-.344.125-.64.375-.89s.547-.376.891-.376.64.125.89.375.376.547.376.891zm3.563 1.266c-.062-.907-.203-1.688-.422-2.344A5.13 5.13 0 0019.72 2.28 5.13 5.13 0 0017.703.97C17.047.75 16.266.625 15.36.594 14.484.53 13.031.5 11 .5S7.5.531 6.594.594c-.875.031-1.64.156-2.297.375A5.537 5.537 0 002.234 2.28 5.392 5.392 0 00.97 4.297C.75 4.953.609 5.734.547 6.64.516 7.516.5 8.969.5 11s.016 3.5.047 4.406c.062.875.203 1.64.422 2.297a5.841 5.841 0 001.265 2.063 5.318 5.318 0 002.063 1.218c.656.25 1.422.391 2.297.422.906.063 2.375.094 4.406.094 2.031 0 3.484-.031 4.36-.094.906-.031 1.687-.156 2.343-.375a5.392 5.392 0 002.016-1.265 5.536 5.536 0 001.312-2.063c.219-.656.344-1.422.375-2.297.063-.906.094-2.375.094-4.406 0-2.031-.016-3.484-.047-4.36zm-2.25 10.546c-.375.938-1.047 1.61-2.015 2.016-.5.188-1.344.313-2.532.375-.656.031-1.625.047-2.906.047h-1.5c-1.25 0-2.219-.016-2.906-.047-1.157-.062-2-.187-2.532-.375-.937-.375-1.609-1.047-2.015-2.015-.188-.532-.313-1.375-.375-2.532a68.365 68.365 0 01-.047-2.906v-1.5c0-1.25.016-2.219.047-2.906.062-1.188.187-2.032.375-2.532.375-.968 1.047-1.64 2.015-2.015.532-.188 1.375-.313 2.532-.375a68.37 68.37 0 012.906-.047h1.5c1.25 0 2.219.016 2.906.047 1.188.062 2.031.187 2.531.375.97.375 1.641 1.047 2.016 2.015.188.5.313 1.344.375 2.532.031.656.047 1.625.047 2.906v1.5c0 1.25-.016 2.219-.047 2.906-.062 1.156-.187 2-.375 2.531z" fill="url(#ipaint0_linear)"/><defs><linearGradient id="ipaint0_linear" x1="11" y1="-1" x2="11" y2="23" gradientUnits="userSpaceOnUse"><stop stop-color="#BC9CFF"/><stop offset="1" stop-color="#8BA4F9"/></linearGradient></defs></svg><svg fill="none" viewBox="0 0 36 38" id="location_city" xmlns="http://www.w3.org/2000/svg"><path d="M31.969 26v-4.031H28.03V26h3.938zm0 7.969V30.03H28.03v3.938h3.938zm-12-24V6.03H16.03V9.97h3.938zm0 8.062V14H16.03v4.031h3.938zm0 7.969v-4.031H16.03V26h3.938zm0 7.969V30.03H16.03v3.938h3.938zm-12-15.938V14H4.03v4.031H7.97zm0 7.969v-4.031H4.03V26H7.97zm0 7.969V30.03H4.03v3.938H7.97zM24 18.03h12V38H0V9.969h12V6.03l6-6 6 6v12z" fill="url(#jpaint0_linear_18384_61)"/><defs><linearGradient id="jpaint0_linear_18384_61" x1="18" y1="-4" x2="18" y2="44" gradientUnits="userSpaceOnUse"><stop stop-color="#BC9CFF"/><stop offset="1" stop-color="#8BA4F9"/></linearGradient></defs></svg><svg fill="none" viewBox="0 0 20 19" id="star" xmlns="http://www.w3.org/2000/svg"><path d="M10 15.25L3.812 19l1.641-7.031L.016 7.234l7.171-.609L10 .015l2.813 6.61 7.171.61-5.437 4.734L16.187 19 10 15.25z" fill="url(#kpaint0_linear_18447_185)"/><defs><linearGradient id="kpaint0_linear_18447_185" x1="10" y1="-2" x2="10" y2="22" gradientUnits="userSpaceOnUse"><stop stop-color="#BC9CFF"/><stop offset="1" stop-color="#8BA4F9"/></linearGradient></defs></svg><svg fill="none" viewBox="0 0 20 19" id="star_border" xmlns="http://www.w3.org/2000/svg"><path d="M10 13.422l3.75 2.25-.984-4.266L16.094 8.5l-4.407-.375L10 4.094 8.312 8.125 3.907 8.5l3.328 2.906-.984 4.266 3.75-2.25zm9.984-6.188l-5.437 4.735L16.187 19 10 15.25 3.812 19l1.641-7.031L.016 7.234l7.171-.609L10 .015l2.813 6.61 7.171.61z" fill="url(#lpaint0_linear_18447_196)"/><defs><linearGradient id="lpaint0_linear_18447_196" x1="10" y1="-2" x2="10" y2="22" gradientUnits="userSpaceOnUse"><stop stop-color="#BC9CFF"/><stop offset="1" stop-color="#8BA4F9"/></linearGradient></defs></svg><svg fill="none" viewBox="0 0 24 20" id="twitter" xmlns="http://www.w3.org/2000/svg"><path d="M21.516 5.125c.03.125.047.328.047.61 0 2.25-.547 4.421-1.641 6.515-1.125 2.219-2.703 3.984-4.735 5.297-2.218 1.469-4.765 2.203-7.64 2.203-2.75 0-5.266-.734-7.547-2.203.344.031.734.047 1.172.047 2.281 0 4.328-.703 6.14-2.11-1.093 0-2.062-.312-2.906-.937a5.085 5.085 0 01-1.687-2.438c.312.032.61.047.89.047.438 0 .875-.047 1.313-.14-1.125-.25-2.063-.829-2.813-1.735C1.36 9.375.984 8.344.984 7.187v-.093a4.634 4.634 0 002.204.656 5.46 5.46 0 01-1.594-1.781 4.683 4.683 0 01-.61-2.344c0-.875.235-1.703.704-2.484A13.646 13.646 0 006.14 4.797a13.794 13.794 0 005.671 1.5 6.832 6.832 0 01-.093-1.125c0-.875.219-1.688.656-2.438A4.77 4.77 0 0114.156.906 4.754 4.754 0 0116.594.25c.718 0 1.375.14 1.968.422a5.473 5.473 0 011.641 1.125 10.015 10.015 0 003.14-1.172c-.374 1.156-1.093 2.063-2.155 2.719.937-.125 1.875-.39 2.812-.797-.688 1-1.516 1.86-2.484 2.578z" fill="url(#mpaint0_linear)"/><defs><linearGradient id="mpaint0_linear" x1="12" y1="-2" x2="12" y2="22" gradientUnits="userSpaceOnUse"><stop stop-color="#BC9CFF"/><stop offset="1" stop-color="#8BA4F9"/></linearGradient></defs></svg><svg fill="none" viewBox="0 0 34 43" id="whatshot" xmlns="http://www.w3.org/2000/svg"><path d="M16.438 36.969c2.687 0 4.937-.907 6.75-2.719C25.063 32.375 26 30.094 26 27.406c0-2.75-.375-5.437-1.125-8.062-1.938 2.562-5.031 4.281-9.281 5.156-3.75.813-5.625 2.875-5.625 6.188 0 1.75.625 3.25 1.875 4.5 1.25 1.187 2.781 1.78 4.594 1.78zM20 .312c4 3.25 7.156 7.22 9.469 11.907 2.375 4.625 3.562 9.562 3.562 14.812 0 4.375-1.562 8.125-4.687 11.25S21.437 42.97 17 42.97c-4.438 0-8.219-1.563-11.344-4.688S.97 31.406.97 27.031c0-6.75 2.156-12.687 6.468-17.812v.75c0 2.062.688 3.812 2.063 5.25 1.375 1.437 3.094 2.156 5.156 2.156 2 0 3.625-.688 4.875-2.063 1.313-1.437 1.969-3.218 1.969-5.343 0-1.25-.125-2.688-.375-4.313-.25-1.625-.5-2.906-.75-3.843L20 .313z" fill="url(#npaint0_linear_18384_65)"/><defs><linearGradient id="npaint0_linear_18384_65" x1="17" y1="-1" x2="17" y2="47" gradientUnits="userSpaceOnUse"><stop stop-color="#BC9CFF"/><stop offset="1" stop-color="#8BA4F9"/></linearGradient></defs></svg></svg>